<svg width="25" height="25" viewBox="0 0 25 25" fill="none" xmlns="http://www.w3.org/2000/svg">
<g clip-path="url(#clip0_52_849)">
<path d="M12.6927 0.78418L12.0327 0.81418L15.8427 4.62418L17.1927 3.28418C20.4427 4.85418 22.7827 8.02418 23.1427 11.7842H24.6427C24.1327 5.62418 18.9827 0.78418 12.6927 0.78418ZM12.6927 4.78418C10.7627 4.78418 9.19268 6.35418 9.19268 8.28418C9.19268 10.2142 10.7627 11.7842 12.6927 11.7842C14.6227 11.7842 16.1927 10.2142 16.1927 8.28418C16.1927 6.35418 14.6227 4.78418 12.6927 4.78418ZM0.742676 13.7842C1.25268 19.9442 6.40268 24.7842 12.6927 24.7842L13.3527 24.7542L9.54268 20.9442L8.19268 22.2842C4.94268 20.7242 2.60268 17.5442 2.24268 13.7842H0.742676ZM12.6927 13.7842C8.82268 13.7842 5.69268 15.3542 5.69268 17.2842V18.7842H19.6927V17.2842C19.6927 15.3542 16.5627 13.7842 12.6927 13.7842Z" fill="white"/>
</g>
<defs>
<clipPath id="clip0_52_849">
<rect width="24" height="24" fill="white" transform="translate(0.691895 0.78418)"/>
</clipPath>
</defs>
</svg>
