<svg width="21" height="17" viewBox="0 0 21 17" fill="none" xmlns="http://www.w3.org/2000/svg">
<path d="M18.7427 4.03369L10.7427 9.03369L2.74268 4.03369V2.03369L10.7427 7.03369L18.7427 2.03369V4.03369ZM18.7427 0.0336914H2.74268C1.63268 0.0336914 0.742676 0.923691 0.742676 2.03369V14.0337C0.742676 14.5641 0.953389 15.0728 1.32846 15.4479C1.70353 15.823 2.21224 16.0337 2.74268 16.0337H18.7427C19.2731 16.0337 19.7818 15.823 20.1569 15.4479C20.532 15.0728 20.7427 14.5641 20.7427 14.0337V2.03369C20.7427 1.50326 20.532 0.99455 20.1569 0.619478C19.7818 0.244405 19.2731 0.0336914 18.7427 0.0336914Z" fill="white"/>
</svg>
