<svg width="23" height="23" viewBox="0 0 23 23" fill="none" xmlns="http://www.w3.org/2000/svg">
<path d="M11.9224 22.2842C10.0557 22.2842 8.33903 21.8592 6.77236 21.0092C5.2057 20.1592 3.92236 19.0258 2.92236 17.6092V20.2842H0.922363V14.2842H6.92236V16.2842H4.44736C5.24736 17.4842 6.3017 18.4508 7.61036 19.1842C8.91836 19.9175 10.3557 20.2842 11.9224 20.2842C13.1724 20.2842 14.3434 20.0468 15.4354 19.5722C16.5267 19.0968 17.4767 18.4548 18.2854 17.6462C19.0934 16.8382 19.735 15.8882 20.2104 14.7962C20.685 13.7048 20.9224 12.5342 20.9224 11.2842H22.9224C22.9224 12.8008 22.635 14.2258 22.0604 15.5592C21.485 16.8925 20.6974 18.0592 19.6974 19.0592C18.6974 20.0592 17.5307 20.8465 16.1974 21.4212C14.864 21.9965 13.439 22.2842 11.9224 22.2842ZM0.922363 11.2842C0.922363 9.76751 1.21003 8.34251 1.78536 7.00918C2.36003 5.67585 3.14736 4.50918 4.14736 3.50918C5.14736 2.50918 6.31403 1.72151 7.64736 1.14618C8.9807 0.571513 10.4057 0.28418 11.9224 0.28418C13.789 0.28418 15.5057 0.70918 17.0724 1.55918C18.639 2.40918 19.9224 3.54251 20.9224 4.95918V2.28418H22.9224V8.28418H16.9224V6.28418H19.3974C18.5974 5.08418 17.543 4.11751 16.2344 3.38418C14.9264 2.65085 13.489 2.28418 11.9224 2.28418C10.6724 2.28418 9.5017 2.52151 8.41036 2.99618C7.31836 3.47151 6.36836 4.11318 5.56036 4.92118C4.7517 5.72985 4.1097 6.67985 3.63436 7.77118C3.1597 8.86318 2.92236 10.0342 2.92236 11.2842H0.922363Z" fill="white"/>
</svg>
