<svg width="109" height="109" viewBox="0 0 109 109" fill="none" xmlns="http://www.w3.org/2000/svg">
<path d="M33.8236 31.4285C30.9546 31.4285 28.6543 33.7288 28.6543 36.5978V46.9364C28.6543 49.8053 30.9546 52.1056 33.8236 52.1056H44.1622C47.0311 52.1056 49.3315 49.8053 49.3315 46.9364V36.5978C49.3315 33.7288 47.0311 31.4285 44.1622 31.4285M44.6791 35.3054L47.4188 38.0193L37.1061 48.2287L30.5669 41.6378L33.3325 38.9239L37.1319 42.7751M33.8236 57.2749C30.9546 57.2749 28.6543 59.5753 28.6543 62.4442V72.7828C28.6543 75.6518 30.9546 77.9521 33.8236 77.9521H44.1622C47.0311 77.9521 49.3315 75.6518 49.3315 72.7828V62.4442C49.3315 59.5753 47.0311 57.2749 44.1622 57.2749M33.8236 62.4442H44.1622V72.7828H33.8236M54.5008 36.5978H80.3472V41.7671H54.5008M54.5008 72.7828V67.6135H80.3472V72.7828M54.5008 52.1056H80.3472V57.2749H54.5008V52.1056Z" fill="url(#paint0_linear_1_113)"/>
<path fill-rule="evenodd" clip-rule="evenodd" d="M54.5003 105.678C82.6602 105.678 105.488 82.8501 105.488 54.6902C105.488 26.5303 82.6602 3.70215 54.5003 3.70215C26.3403 3.70215 3.51221 26.5303 3.51221 54.6902C3.51221 82.8501 26.3403 105.678 54.5003 105.678ZM54.5003 108.968C84.4769 108.968 108.778 84.6669 108.778 54.6902C108.778 24.7135 84.4769 0.412598 54.5003 0.412598C24.5236 0.412598 0.222656 24.7135 0.222656 54.6902C0.222656 84.6669 24.5236 108.968 54.5003 108.968Z" fill="url(#paint1_linear_1_113)"/>
<defs>
<linearGradient id="paint0_linear_1_113" x1="54.5008" y1="31.4285" x2="54.5008" y2="77.9521" gradientUnits="userSpaceOnUse">
<stop stop-color="#E8A961"/>
<stop offset="0.46875" stop-color="#F8E7C5"/>
<stop offset="1" stop-color="#F3DBAD"/>
</linearGradient>
<linearGradient id="paint1_linear_1_113" x1="54.5003" y1="0.412598" x2="54.5003" y2="108.968" gradientUnits="userSpaceOnUse">
<stop stop-color="#E8A961"/>
<stop offset="0.46875" stop-color="#F8E7C5"/>
<stop offset="1" stop-color="#F3DBAD"/>
</linearGradient>
</defs>
</svg>
