<svg width="109" height="109" viewBox="0 0 109 109" fill="none" xmlns="http://www.w3.org/2000/svg">
<g clip-path="url(#clip0_1_121)">
<path d="M84.9287 67.6845L68.0578 84.5857L59.9101 76.4077L62.6361 73.6817L68.0578 79.0731L82.2027 64.9585L84.9287 67.6845ZM54.4884 43.0597H42.8575V39.1827H54.4884V43.0597ZM54.4884 50.8136H42.8575V46.9366H54.4884V50.8136ZM42.8575 54.6906H54.4884V58.5675H42.8575V54.6906ZM38.9805 43.0597H35.1036V39.1827H38.9805V43.0597ZM38.9805 50.8136H35.1036V46.9366H38.9805V50.8136ZM35.1036 54.6906H38.9805V58.5675H35.1036V54.6906ZM58.3654 43.0597V27.5518H31.2266V81.8294H58.3654V85.7063H27.3496V23.6748H61.1217L77.7502 40.3034V62.4445L73.8733 66.3215V43.0597H58.3654ZM62.2424 39.1827H71.117L62.2424 30.3081V39.1827Z" fill="url(#paint0_linear_1_121)"/>
</g>
<path fill-rule="evenodd" clip-rule="evenodd" d="M54.4885 105.678C82.6485 105.678 105.477 82.8501 105.477 54.6902C105.477 26.5303 82.6485 3.70215 54.4885 3.70215C26.3286 3.70215 3.50049 26.5303 3.50049 54.6902C3.50049 82.8501 26.3286 105.678 54.4885 105.678ZM54.4885 108.968C84.4652 108.968 108.766 84.6669 108.766 54.6902C108.766 24.7135 84.4652 0.412598 54.4885 0.412598C24.5118 0.412598 0.210938 24.7135 0.210938 54.6902C0.210938 84.6669 24.5118 108.968 54.4885 108.968Z" fill="url(#paint1_linear_1_121)"/>
<defs>
<linearGradient id="paint0_linear_1_121" x1="56.1392" y1="23.6748" x2="56.1392" y2="85.7063" gradientUnits="userSpaceOnUse">
<stop stop-color="#E8A961"/>
<stop offset="0.46875" stop-color="#F8E7C5"/>
<stop offset="1" stop-color="#F3DBAD"/>
</linearGradient>
<linearGradient id="paint1_linear_1_121" x1="54.4885" y1="0.412598" x2="54.4885" y2="108.968" gradientUnits="userSpaceOnUse">
<stop stop-color="#E8A961"/>
<stop offset="0.46875" stop-color="#F8E7C5"/>
<stop offset="1" stop-color="#F3DBAD"/>
</linearGradient>
<clipPath id="clip0_1_121">
<rect width="62.0315" height="62.0315" fill="white" transform="translate(23.4727 23.6748)"/>
</clipPath>
</defs>
</svg>
