<svg width="30" height="26" viewBox="0 0 30 26" fill="none" xmlns="http://www.w3.org/2000/svg">
<path d="M15.15 22.0327L15 22.1744L14.835 22.0327C7.71 15.9259 3 11.8877 3 7.79292C3 4.95913 5.25 2.83379 8.25 2.83379C10.56 2.83379 12.81 4.25068 13.605 6.17766H16.395C17.19 4.25068 19.44 2.83379 21.75 2.83379C24.75 2.83379 27 4.95913 27 7.79292C27 11.8877 22.29 15.9259 15.15 22.0327ZM21.75 0C19.14 0 16.635 1.14768 15 2.94714C13.365 1.14768 10.86 0 8.25 0C3.63 0 0 3.41471 0 7.79292C0 13.1346 5.1 17.5128 12.825 24.1297L15 26L17.175 24.1297C24.9 17.5128 30 13.1346 30 7.79292C30 3.41471 26.37 0 21.75 0Z" fill="url(#paint0_linear_101_10)"/>
<defs>
<linearGradient id="paint0_linear_101_10" x1="15" y1="0" x2="15" y2="26" gradientUnits="userSpaceOnUse">
<stop stop-color="#E8AF6B"/>
<stop offset="1" stop-color="#FBF1DB"/>
</linearGradient>
</defs>
</svg>
