<svg width="211" height="76" viewBox="0 0 211 76" fill="none" xmlns="http://www.w3.org/2000/svg">
<path fill-rule="evenodd" clip-rule="evenodd" d="M92.0977 13.4829C92.0977 13.4829 92.0977 13.4829 96.5146 13.4829C98.1241 13.4829 98.9349 14.2781 98.9349 16.0733C98.9349 16.0733 98.9349 16.0733 98.9349 22.4347C98.9349 22.4347 98.9349 22.4347 107.587 22.4347C107.587 22.4347 107.587 22.4347 107.587 16.0733C107.587 14.2781 108.386 13.4829 110.201 13.4829C110.201 13.4829 110.201 13.4829 114.425 13.4829C114.425 13.4829 114.425 13.4829 114.425 17.6636C114.425 17.6636 114.425 17.6636 112.621 17.6636L112.416 17.8685C112.416 17.8685 112.416 17.8685 112.416 35.7721C112.416 35.7721 112.416 35.7721 107.587 35.7721C107.587 35.7721 107.587 35.7721 107.587 26.8203C107.587 26.8203 107.587 26.8203 98.9349 26.8203C98.9349 26.8203 98.9349 26.8203 98.9349 35.7721C98.9349 35.7721 98.9349 35.7721 94.1065 35.7721C94.1065 35.7721 94.1065 35.7721 94.1065 17.8685C94.1065 17.8685 94.1065 17.6636 93.9008 17.6636C93.9008 17.6636 93.9008 17.6636 92.0977 17.6636C92.0977 17.6636 92.0977 17.6636 92.0977 13.4829Z" fill="#ED1C24"/>
<path fill-rule="evenodd" clip-rule="evenodd" d="M127.094 13.0854L127.203 13.0975V17.6879L127.094 17.6638C123.476 17.6638 120.656 20.6517 120.656 24.4348C120.656 28.4108 123.476 31.5915 127.094 31.5915L127.203 31.5674V36.1577L127.094 36.1698C120.656 36.1698 115.429 31.0011 115.429 24.4348C115.429 18.0614 120.656 13.0854 127.094 13.0854Z" fill="#ED1C24"/>
<path fill-rule="evenodd" clip-rule="evenodd" d="M127.203 13.0977L129.442 13.3145C134.754 14.3507 138.76 18.8567 138.76 24.435C138.76 30.17 134.754 34.8567 129.442 35.929L127.203 36.1579V31.5675L129.66 31.0374C132.032 29.9531 133.738 27.4109 133.738 24.435C133.738 21.5916 132.032 19.2061 129.66 18.194L127.203 17.688V13.0977Z" fill="#ED1C24"/>
<path fill-rule="evenodd" clip-rule="evenodd" d="M139.765 13.4829C139.765 13.4829 139.765 13.4829 146.505 13.4829H149.724V17.6636H149.421C149.022 17.6636 148.211 17.6636 146.602 17.6636C146.602 17.6636 146.602 17.6636 146.602 22.2419C146.602 22.2419 146.602 22.2419 147.969 22.2419H149.724V26.2179H148.695C148.187 26.2179 147.509 26.2179 146.602 26.2179C146.602 26.2179 146.602 26.2179 146.602 31.1938C146.602 31.3986 146.602 31.3986 146.808 31.3986C146.808 31.3986 146.808 31.3986 148.248 31.3986H149.724V35.7721H149.3C148.574 35.7721 147.11 35.7721 144.194 35.7721C142.584 35.7721 141.786 34.9769 141.786 33.1817V17.6636C141.786 17.6636 141.786 17.6636 139.765 17.6636C139.765 17.6636 139.765 17.6636 139.765 13.4829Z" fill="#ED1C24"/>
<path fill-rule="evenodd" clip-rule="evenodd" d="M149.724 13.4829H149.82C154.25 13.4829 156.863 15.8685 156.863 19.4588C156.863 21.6395 155.859 23.0371 154.855 24.0371C156.67 24.8323 157.868 26.8203 157.868 29.001C157.868 33.1817 154.649 35.7721 150.026 35.7721C150.026 35.7721 150.026 35.7721 149.941 35.7721H149.724V31.3986H150.22C151.829 31.3986 152.846 30.3986 152.846 28.8082C152.846 27.2179 151.829 26.2179 150.22 26.2179C150.22 26.2179 150.22 26.2179 149.772 26.2179H149.724V22.2419H149.82C151.236 22.2419 152.035 21.242 152.035 19.8564C152.035 18.4588 151.236 17.6636 149.82 17.6636C149.82 17.6636 149.82 17.6636 149.772 17.6636H149.724V13.4829Z" fill="#ED1C24"/>
<path fill-rule="evenodd" clip-rule="evenodd" d="M167.125 13.4829C167.125 13.4829 167.125 13.4829 169.159 13.4829H169.534V19.8564C169.34 20.254 169.134 20.8444 169.134 21.4468C169.134 21.4468 169.134 21.4468 167.525 26.0251C167.525 26.0251 167.525 26.0251 169.231 26.0251H169.534V30.1938H168.445C167.827 30.1938 167.125 30.1938 166.327 30.1938C166.327 30.1938 166.327 30.1938 164.911 33.7841C164.512 35.1697 163.713 35.7721 162.103 35.7721C162.103 35.7721 162.103 35.7721 159.078 35.7721C159.078 35.7721 159.078 35.7721 159.078 31.3986C159.078 31.3986 159.078 31.3986 160.083 31.3986C160.494 31.3986 160.494 31.3986 160.688 31.1938C160.688 31.1938 160.688 31.1938 167.125 13.4829Z" fill="#ED1C24"/>
<path fill-rule="evenodd" clip-rule="evenodd" d="M169.534 13.4829H171.954C171.954 13.4829 171.954 13.4829 178.392 31.1938C178.586 31.3986 178.586 31.3986 178.985 31.3986C178.985 31.3986 178.985 31.3986 179.796 31.3986C179.796 31.3986 179.796 31.3986 179.796 35.7721C179.796 35.7721 179.796 35.7721 176.976 35.7721C175.367 35.7721 174.568 35.1697 174.157 33.5793C174.157 33.5793 174.157 33.5793 172.753 30.1938C172.753 30.1938 172.753 30.1938 170.042 30.1938H169.534V26.0251H171.543C171.543 26.0251 171.543 26.0251 169.946 21.4468C169.946 20.8444 169.74 20.254 169.534 19.8564V13.4829Z" fill="#ED1C24"/>
<path fill-rule="evenodd" clip-rule="evenodd" d="M92.0977 42.1338C92.0977 42.1338 92.0977 42.1338 109.596 42.1338C111.206 42.1338 112.21 42.929 112.21 44.7242C112.21 44.7242 112.21 44.7242 112.21 59.8446C112.21 60.0374 112.21 60.0374 112.416 60.0374C112.416 60.0374 112.416 60.0374 114.025 60.0374C114.025 60.0374 114.025 60.0374 114.025 64.4229C114.025 64.4229 114.025 64.4229 109.802 64.4229C107.987 64.4229 107.188 63.6278 107.188 61.8326C107.188 61.8326 107.188 61.8326 107.188 46.5193C107.188 46.5193 107.188 46.3145 106.982 46.3145C106.982 46.3145 106.982 46.3145 98.9349 46.3145C98.9349 46.3145 98.9349 46.3145 98.9349 64.4229C98.9349 64.4229 98.9349 64.4229 94.1065 64.4229C94.1065 64.4229 94.1065 64.4229 94.1065 46.3145C94.1065 46.3145 94.1065 46.3145 92.0977 46.3145C92.0977 46.3145 92.0977 46.3145 92.0977 42.1338Z" fill="#ED1C24"/>
<path fill-rule="evenodd" clip-rule="evenodd" d="M126.695 41.7363L126.792 41.7484V46.3387L126.695 46.3146C123.064 46.3146 120.257 49.3026 120.257 53.0857C120.257 57.0616 123.064 60.2424 126.695 60.2424L126.792 60.2183V64.8086L126.695 64.8207C120.257 64.8207 115.223 59.6399 115.223 53.0857C115.223 46.7122 120.257 41.7363 126.695 41.7363Z" fill="#ED1C24"/>
<path fill-rule="evenodd" clip-rule="evenodd" d="M126.792 41.748L129.103 41.9649C134.513 43.0011 138.361 47.5071 138.361 53.0854C138.361 58.8203 134.513 63.5071 129.103 64.5794L126.792 64.8083V60.2179L129.345 59.6878C131.754 58.6035 133.339 56.0613 133.339 53.0854C133.339 50.242 131.754 47.8565 129.345 46.8444L126.792 46.3384V41.748Z" fill="#ED1C24"/>
<path fill-rule="evenodd" clip-rule="evenodd" d="M139.365 42.1338C139.365 42.1338 139.365 42.1338 143.794 42.1338C145.404 42.1338 146.202 42.929 146.202 44.7242C146.202 44.7242 146.202 44.7242 146.202 59.8446C146.202 60.0374 146.202 60.0374 146.408 60.0374C146.408 60.0374 146.408 60.0374 152.241 60.0374C152.241 60.0374 152.241 60.0374 152.241 42.1338C152.241 42.1338 152.241 42.1338 157.069 42.1338C157.069 42.1338 157.069 42.1338 157.069 60.0374C157.069 60.0374 157.069 60.0374 162.902 60.0374C163.108 60.0374 163.108 60.0374 163.108 59.8446C163.108 59.8446 163.108 59.8446 163.108 44.7242C163.108 42.929 163.907 42.1338 165.516 42.1338C165.516 42.1338 165.516 42.1338 169.945 42.1338C169.945 42.1338 169.945 42.1338 169.945 46.3145C169.945 46.3145 169.945 46.3145 168.13 46.3145C167.924 46.3145 167.924 46.5193 167.924 46.5193C167.924 46.5193 167.924 46.5193 167.924 61.8326C167.924 63.6278 167.126 64.4229 165.516 64.4229C165.516 64.4229 165.516 64.4229 143.988 64.4229C142.185 64.4229 141.374 63.6278 141.374 61.8326C141.374 61.8326 141.374 61.8326 141.374 46.5193C141.374 46.5193 141.374 46.3145 141.18 46.3145C141.18 46.3145 141.18 46.3145 139.365 46.3145C139.365 46.3145 139.365 46.3145 139.365 42.1338Z" fill="#ED1C24"/>
<path fill-rule="evenodd" clip-rule="evenodd" d="M173.758 42.1338C173.758 42.1338 173.758 42.1338 188.848 42.1338C190.663 42.1338 191.268 42.929 191.268 44.5193C191.268 44.5193 191.268 44.5193 191.268 48.3025H186.839C186.839 48.3025 186.839 48.3025 186.839 46.5193C186.839 46.3145 186.839 46.3145 186.633 46.3145C186.633 46.3145 186.633 46.3145 183.826 46.3145C183.826 46.3145 183.826 46.3145 183.826 64.4229C183.826 64.4229 183.826 64.4229 178.985 64.4229C178.985 64.4229 178.985 64.4229 178.985 46.3145C178.985 46.3145 178.985 46.3145 176.178 46.3145C175.972 46.3145 175.972 46.3145 175.972 46.5193C175.972 46.5193 175.972 46.5193 175.972 48.3025C175.972 48.3025 175.972 48.3025 171.543 48.3025C171.543 48.3025 171.543 48.3025 171.543 44.5193C171.543 42.929 172.148 42.1338 173.758 42.1338Z" fill="#ED1C24"/>
<path fill-rule="evenodd" clip-rule="evenodd" d="M197.5 42.1338C197.5 42.1338 197.5 42.1338 199.533 42.1338H199.908V48.5073C199.702 48.9049 199.508 49.4952 199.508 50.0976C199.508 50.0976 199.508 50.0976 197.899 54.676C197.899 54.676 197.899 54.676 199.593 54.676H199.908V58.8446H198.819C198.201 58.8446 197.5 58.8446 196.689 58.8446C196.689 58.8446 196.689 58.8446 195.285 62.2302C194.886 63.8205 194.075 64.4229 192.465 64.4229C192.465 64.4229 192.465 64.4229 189.452 64.4229C189.452 64.4229 189.452 64.4229 189.452 60.0374C189.452 60.0374 189.452 60.0374 190.457 60.0374C190.868 60.0374 190.868 60.0374 191.062 59.8446C191.062 59.8446 191.062 59.8446 197.5 42.1338Z" fill="#ED1C24"/>
<path fill-rule="evenodd" clip-rule="evenodd" d="M199.908 42.1338H202.316C202.316 42.1338 202.316 42.1338 208.766 59.8446C208.96 60.0374 208.96 60.0374 209.371 60.0374H210.17C210.17 60.0374 210.17 60.0374 210.17 64.4229C210.17 64.4229 210.17 64.4229 207.351 64.4229C205.741 64.4229 204.942 63.8205 204.531 62.2302C204.531 62.2302 204.531 62.2302 203.127 58.8446C203.127 58.8446 203.127 58.8446 200.416 58.8446H199.908V54.676H201.917C201.917 54.676 201.917 54.676 200.308 50.0976C200.308 49.4952 200.114 48.9049 199.908 48.5073V42.1338Z" fill="#ED1C24"/>
<path fill-rule="evenodd" clip-rule="evenodd" d="M61.0939 22.9652C61.3238 22.8929 61.6263 23.0375 61.9289 23.4351C61.9289 23.4351 61.9289 23.4351 75.6034 36.7604C76.402 37.5555 76.402 38.7604 75.6034 39.3507C75.6034 39.3507 75.6034 39.3507 61.9289 52.8808C61.6263 53.2784 61.3238 53.3748 61.0939 53.2543C60.864 53.1338 60.7188 52.7845 60.7188 52.2784V23.8326C60.7188 23.3387 60.864 23.0375 61.0939 22.9652Z" fill="#ED1C24"/>
<path fill-rule="evenodd" clip-rule="evenodd" d="M37.7023 0.760254H38.6704L39.6022 1.1458C39.6022 1.1458 39.6022 1.1458 53.6761 15.0735C54.2811 15.8687 54.0754 16.4711 53.071 16.4711C53.071 16.4711 53.071 16.4711 47.2382 16.4711C46.2337 16.4711 45.4351 17.2663 45.4351 18.2663C45.4351 18.2663 45.4351 18.2663 45.4351 28.6036C45.4351 29.6036 44.6243 30.3988 43.4141 30.3988C43.4141 30.3988 43.4141 30.3988 33.1643 30.3988C32.1599 30.3988 31.3491 29.6036 31.3491 28.6036C31.3491 28.6036 31.3491 28.6036 31.3491 18.2663C31.3491 17.2663 30.5505 16.4711 29.5339 16.4711H23.3018C22.2974 16.4711 22.0916 15.8687 22.6967 15.0735C22.6967 15.0735 22.6967 15.0735 36.7826 1.1458L37.7023 0.760254Z" fill="#ED1C24"/>
<path fill-rule="evenodd" clip-rule="evenodd" d="M15.6535 22.6638C15.9077 22.7842 16.065 23.1336 16.065 23.6397V52.6758C16.065 53.1818 15.9077 53.483 15.6535 53.5794C15.4115 53.6758 15.0606 53.5794 14.6491 53.2782C14.6491 53.2782 14.6491 53.2782 0.768936 39.3505C-0.0297497 38.7601 -0.0297497 37.5553 0.768936 36.7601C0.768936 36.7601 0.768938 36.7601 14.6491 23.0373C15.0606 22.6397 15.4115 22.5433 15.6535 22.6638Z" fill="#ED1C24"/>
<path fill-rule="evenodd" clip-rule="evenodd" d="M33.1646 45.5195C33.1646 45.5195 33.1646 45.5195 43.4144 45.5195C44.6245 45.5195 45.4353 46.3147 45.4353 47.3147C45.4353 47.3147 45.4353 47.3147 45.4353 58.2545C45.4353 59.4472 46.234 60.2424 47.2384 60.2424H52.6719C53.6763 60.2424 54.0757 60.8328 53.277 61.4352C53.277 61.4352 53.277 61.4352 39.6025 75.1581C39.1911 75.5557 38.6949 75.7605 38.1867 75.7605C37.6905 75.7605 37.1822 75.5557 36.7829 75.1581C36.7829 75.1581 36.7829 75.1581 23.1084 61.4352C22.2976 60.8328 22.697 60.2424 23.7014 60.2424C23.7014 60.2424 23.7014 60.2424 29.5342 60.2424C30.5507 60.2424 31.3494 59.4472 31.3494 58.2545C31.3494 58.2545 31.3494 58.2545 31.3494 47.3147C31.3494 46.3147 32.1602 45.5195 33.1646 45.5195Z" fill="#ED1C24"/>
</svg>
