<svg width="288" height="78" viewBox="0 0 288 78" fill="none" xmlns="http://www.w3.org/2000/svg">
<path d="M50.7007 44.9058C50.6987 44.9053 25.2398 39.1441 25.2398 39.1441C17.6514 37.4268 12.8912 29.8828 14.6079 22.2939C16.3257 14.7051 23.8697 9.94582 31.458 11.6626C39.0469 13.3799 43.8067 20.9238 42.0898 28.5122C41.2295 32.3116 38.9087 35.3989 35.853 37.3223C35.8525 37.3223 35.8452 37.3286 35.8423 37.3301C35.7524 37.3946 35.6943 37.4996 35.6943 37.6177C35.6943 37.7832 35.8085 37.9223 35.9629 37.9594C35.9634 37.9599 47.2885 40.5209 47.2905 40.5209C47.56 40.5821 47.8398 40.4781 48.0054 40.2593C48.0063 40.2573 48.0059 40.2588 48.0059 40.2588C51.1259 36.1303 53 30.9789 53 25.4072C53 12.2857 42.7485 1.56245 29.8179 0.800819C29.7027 0.794441 29.0019 0.767067 28.7652 0.763695C23.04 0.67382 17.2353 2.31544 12.1875 5.85056C-0.560073 14.7763 -3.65724 32.3452 5.26757 45.0923L27.9184 77.4414C28.0152 77.5732 28.1709 77.6587 28.3457 77.6587C28.5219 77.6587 28.6782 77.5718 28.7744 77.439C28.7744 77.439 51.017 45.7187 51.019 45.7158C51.0757 45.6318 51.1094 45.5298 51.1094 45.4204C51.1094 45.1694 50.935 44.9594 50.7007 44.9058Z" fill="#FABC26"/>
<path d="M72.4936 15.9058C72.7661 15.9058 72.9467 15.9961 73.0371 16.1772L80.5897 29.0659H80.9511L87.3734 16.3574C87.5087 16.0406 87.7807 15.9058 88.1424 15.9058H92.7553C93.1626 15.9058 93.3881 16.3129 93.2069 16.6289L79.9106 40.1469C79.7753 40.4179 79.5043 40.5542 79.1419 40.5542H74.6196C74.1219 40.5542 74.0771 40.2373 74.2582 39.8755L77.8304 33.7696L67.1576 16.4937C66.9759 16.1772 67.1122 15.9058 67.4286 15.9058H72.4936Z" fill="#EEEEEE"/>
<path d="M101.148 15.9058C101.556 15.9058 101.782 16.1313 101.782 16.5386V26.2109L111.959 16.2671C112.23 16.0406 112.636 15.9058 113.134 15.9058H118.651C119.059 15.9058 119.195 16.2671 118.877 16.584L108.068 26.7148L119.556 39.8755C119.873 40.1915 119.692 40.5542 119.285 40.5542H113.858C113.36 40.5542 112.999 40.4179 112.727 40.1011L104.12 29.9492L101.782 32.1241V39.9204C101.782 40.3277 101.556 40.5542 101.148 40.5542H97.1689C96.7616 40.5542 96.5361 40.3277 96.5361 39.9204V16.5386C96.5361 16.1313 96.7616 15.9058 97.1689 15.9058H101.148Z" fill="#EEEEEE"/>
<path d="M134.552 29.021C137.311 29.021 138.894 27.3027 138.894 24.9058C138.894 22.5537 137.311 20.8808 134.552 20.8808H127.994V29.021H134.552ZM134.552 15.9053C140.024 15.9053 144.139 19.8398 144.139 24.9058C144.139 30.1518 140.024 33.9961 134.552 33.9961H127.994V39.9205C127.994 40.3272 127.767 40.5537 127.361 40.5537H123.38C122.974 40.5537 122.747 40.3272 122.747 39.9205V16.5386C122.747 16.1313 122.974 15.9053 123.38 15.9053H134.552Z" fill="#EEEEEE"/>
<path d="M168.86 15.9058C169.266 15.9058 169.493 16.1313 169.493 16.5386V39.9204C169.493 40.3277 169.266 40.5542 168.86 40.5542H164.878C164.473 40.5542 164.246 40.3277 164.246 39.9204V20.8349H153.301V39.9204C153.301 40.3277 153.075 40.5542 152.668 40.5542H148.688C148.281 40.5542 148.055 40.3277 148.055 39.9204V16.5386C148.055 16.1313 148.281 15.9058 148.688 15.9058H168.86Z" fill="#EEEEEE"/>
<path d="M179.455 28.2519C179.455 32.7294 182.62 35.9848 187.143 35.9848C191.622 35.9848 194.788 32.7294 194.788 28.2519C194.788 23.684 191.622 20.4732 187.143 20.4732C182.62 20.4732 179.455 23.684 179.455 28.2519ZM187.143 15.5429C194.244 15.5429 200.079 21.0155 200.079 28.2519C200.079 35.5332 194.244 40.9155 187.143 40.9155C179.998 40.9155 174.164 35.5332 174.164 28.2519C174.164 21.0155 179.998 15.5429 187.143 15.5429Z" fill="#EEEEEE"/>
<path d="M217.639 35.6246V16.5381C217.639 16.1318 217.864 15.9058 218.273 15.9058H222.162C222.569 15.9058 222.795 16.1318 222.795 16.5381V35.6246H230.529V16.5381C230.529 16.1318 230.754 15.9058 231.162 15.9058H235.052C235.459 15.9058 235.684 16.1318 235.684 16.5381V39.9204C235.684 40.3277 235.459 40.5542 235.052 40.5542H205.383C205.067 40.5542 204.749 40.3277 204.749 39.9204V16.5381C204.749 16.1318 204.974 15.9058 205.383 15.9058H209.272C209.679 15.9058 209.905 16.1318 209.905 16.5381V35.6246H217.639Z" fill="#EEEEEE"/>
<path d="M260.816 15.9058C261.221 15.9058 261.449 16.1313 261.449 16.5386V20.2471C261.449 20.6543 261.221 20.8799 260.816 20.8799H252.946V39.9204C252.946 40.3277 252.719 40.5542 252.313 40.5542H248.333C247.926 40.5542 247.7 40.3277 247.7 39.9204V20.8799H239.83C239.424 20.8799 239.196 20.6543 239.196 20.2471V16.5386C239.196 16.1313 239.424 15.9058 239.83 15.9058H260.816Z" fill="#EEEEEE"/>
<path d="M269.765 30.921H278.357L274.379 20.7906H273.881L269.765 30.921ZM280.167 35.6695H267.865L266.147 40.0107C266.012 40.3731 265.741 40.5537 265.379 40.5537H260.901C260.45 40.5537 260.314 40.3272 260.45 39.9205L271.122 16.2676C271.212 16.0411 271.394 15.9053 271.711 15.9053H276.866C277.182 15.9053 277.364 16.0411 277.454 16.2676L287.63 39.8296C287.766 40.1925 287.54 40.5537 287.132 40.5537H282.836C282.385 40.5537 282.066 40.3272 281.886 39.9205L280.167 35.6695Z" fill="#EEEEEE"/>
<path d="M70.6396 61.6865V51.1313H77.584V52.3471H72.0346V61.6865H70.6396Z" fill="#617171"/>
<path d="M81.0039 56.3941C81.0039 59.0332 82.4429 60.7379 84.6835 60.7379C86.8945 60.7379 88.3335 59.0176 88.3335 56.3941C88.3335 53.7852 86.8945 52.0952 84.6537 52.0952C82.1611 52.0952 81.0039 54.1406 81.0039 56.3941ZM89.729 56.3199C89.729 59.419 88.0224 61.9385 84.6689 61.9385C81.2861 61.9385 79.6094 59.359 79.6094 56.2901C79.6094 53 81.5825 50.8795 84.6537 50.8795C87.933 50.8795 89.729 53.1769 89.729 56.3199Z" fill="#617171"/>
<path d="M100.648 61.6866H99.2539V52.3472H95.3515L95.144 58.2914C95.0698 60.4121 94.2978 61.9092 92.6958 61.9092C92.3984 61.9092 91.9536 61.8052 91.6865 61.7012V60.5152C91.8799 60.6343 92.2803 60.6641 92.4429 60.6641C93.1997 60.6641 93.7495 60.2486 93.8233 57.5649L94.0162 51.1313H100.648V61.6866Z" fill="#617171"/>
<path d="M105.334 56.3941C105.334 59.0332 106.773 60.7379 109.014 60.7379C111.224 60.7379 112.664 59.0176 112.664 56.3941C112.664 53.7852 111.224 52.0952 108.984 52.0952C106.491 52.0952 105.334 54.1406 105.334 56.3941ZM114.058 56.3199C114.058 59.419 112.353 61.9385 108.999 61.9385C105.616 61.9385 103.938 59.359 103.938 56.2901C103.938 53 105.913 50.8795 108.984 50.8795C112.263 50.8795 114.058 53.1769 114.058 56.3199Z" fill="#617171"/>
<path d="M118.707 60.5151H121.497C122.906 60.5151 124.286 60.4268 124.286 58.5736C124.286 56.7353 122.668 56.7499 121.259 56.7499H118.707V60.5151ZM118.707 55.6528H121.214C122.401 55.6528 123.826 55.5639 123.826 53.978C123.826 52.391 122.594 52.3174 121.348 52.3174H118.707V55.6528ZM121.853 51.1313C123.604 51.1313 125.22 51.8285 125.22 53.77C125.22 54.8075 124.612 55.6976 123.663 56.038C124.968 56.3354 125.695 57.3129 125.695 58.707C125.695 61.1381 123.707 61.6865 121.689 61.6865H117.342V51.1313H121.853Z" fill="#617171"/>
<path d="M137.396 61.6865H136.001V56.7499H130.422V61.6865H129.027V51.1313H130.422V55.5336H136.001V51.1313H137.396V61.6865Z" fill="#617171"/>
<path d="M145.187 52.4653L143.362 57.3433H146.983L145.187 52.4653ZM150.128 61.6865H148.57L147.398 58.455H142.962L141.76 61.6865H140.275L144.43 51.1313H146.003L150.128 61.6865Z" fill="#617171"/>
<path d="M167.326 61.6865H165.931V52.3471H160.352V61.6865H158.957V51.1313H167.326V61.6865Z" fill="#617171"/>
<path d="M172.025 56.3941C172.025 59.0332 173.464 60.7379 175.704 60.7379C177.915 60.7379 179.354 59.0176 179.354 56.3941C179.354 53.7852 177.915 52.0952 175.675 52.0952C173.181 52.0952 172.025 54.1406 172.025 56.3941ZM180.749 56.3199C180.749 59.419 179.042 61.9385 175.69 61.9385C172.306 61.9385 170.63 59.359 170.63 56.2901C170.63 53 172.602 50.8795 175.675 50.8795C178.954 50.8795 180.749 53.1769 180.749 56.3199Z" fill="#617171"/>
<path d="M184.032 51.1313H185.427V60.4711H190.116V51.1313H191.51V60.4711H196.198V51.1313H197.593V61.6865H184.032V51.1313Z" fill="#617171"/>
<path d="M209.05 52.3471H205.504V61.6865H204.109V52.3471H200.562V51.1313H209.05V52.3471Z" fill="#617171"/>
<path d="M214.451 52.4653L212.628 57.3433H216.248L214.451 52.4653ZM219.394 61.6865H217.835L216.663 58.455H212.226L211.025 61.6865H209.54L213.695 51.1313H215.268L219.394 61.6865Z" fill="#617171"/>
<path d="M232.348 55.3715L236.976 61.6865H235.196L231.368 56.3198L229.618 57.9809V61.6865H228.223V51.1313H229.618V56.3646L234.974 51.1313H236.799L232.348 55.3715Z" fill="#617171"/>
<path d="M241.316 56.1865H244.001C245.352 56.1865 246.391 55.8159 246.391 54.2598C246.391 52.5693 245.188 52.332 243.808 52.332H241.316V56.1865ZM244.268 51.1313C246.287 51.1313 247.785 51.976 247.785 54.1704C247.785 56.5575 246.242 57.3579 244.18 57.3579H241.316V61.6865H239.921V51.1313H244.268Z" fill="#617171"/>
<path d="M253.957 52.4653L252.132 57.3433H255.752L253.957 52.4653ZM258.898 61.6865H257.341L256.168 58.455H251.732L250.53 61.6865H249.046L253.2 51.1313H254.773L258.898 61.6865Z" fill="#617171"/>
<path d="M264.575 50.227H263.238V48.7299H264.575V50.227ZM263.195 61.6865H261.8V51.1313H263.195V61.6865ZM261.77 50.227H260.435V48.7299H261.77V50.227Z" fill="#617171"/>
<path d="M275.422 61.6865H274.028V56.7499H268.45V61.6865H267.055V51.1313H268.45V55.5336H274.028V51.1313H275.422V61.6865Z" fill="#617171"/>
<path d="M279.263 51.1313H280.658V60.0708H280.686L285.865 51.1313H287.63V61.6865H286.236V52.7173H286.206L281.013 61.6865H279.263V51.1313Z" fill="#617171"/>
</svg>
