<svg width="109" height="110" viewBox="0 0 109 110" fill="none" xmlns="http://www.w3.org/2000/svg">
<path d="M75.5185 50.2645C75.5885 41.8376 68.4117 34.113 59.5215 33.0437C59.3294 33.0197 59.138 32.9905 58.9475 32.9562C58.5006 32.8707 58.0474 32.822 57.5926 32.8105C55.7685 32.8105 55.2819 34.0926 55.1537 34.8532C55.0284 35.5962 55.1478 36.2227 55.5062 36.7093C56.1094 37.5281 57.173 37.6738 58.0267 37.7903C58.2744 37.8253 58.5104 37.8573 58.7086 37.901C66.6983 39.6872 69.3878 42.4933 70.7019 50.416C70.734 50.6083 70.7486 50.8472 70.7661 51.1007C70.8243 52.0477 70.9409 54.0175 73.0592 54.0175C73.2341 54.0175 73.4264 54.0029 73.6245 53.9738C75.5943 53.6737 75.5331 51.8729 75.504 51.0075C75.4952 50.7627 75.4865 50.5325 75.5098 50.3781C75.5144 50.3394 75.5164 50.3005 75.5156 50.2616L75.5185 50.2645Z" fill="url(#paint0_linear_1_2111)"/>
<path d="M57.0746 29.9516C57.3136 29.9691 57.535 29.9866 57.7215 30.0128C70.8425 32.0321 76.8771 38.2473 78.5468 51.4704C78.5759 51.6947 78.5817 51.9686 78.5846 52.2571C78.6021 53.2915 78.6371 55.4419 80.9449 55.4856H81.0148C81.7403 55.4856 82.3144 55.2671 82.7281 54.8358C83.4449 54.087 83.3983 52.971 83.3546 52.0735C83.3459 51.8521 83.3371 51.6452 83.3371 51.4616C83.5061 37.9414 71.7983 25.677 58.2897 25.2225C58.2314 25.2225 58.179 25.2225 58.1265 25.2312C58.0734 25.2379 58.0198 25.2408 57.9663 25.2399C57.8293 25.2399 57.6661 25.2283 57.4884 25.2166C57.2786 25.2021 57.0368 25.1846 56.7891 25.1846C54.6387 25.1846 54.2307 26.7143 54.1783 27.6264C54.0588 29.7331 56.0956 29.8817 57.0746 29.9516ZM77.9144 68.5601C77.6329 68.346 77.3542 68.1285 77.0782 67.9074C75.6446 66.7535 74.1206 65.6928 72.6491 64.6642L71.7313 64.0232C69.8431 62.6974 68.1472 62.0534 66.5446 62.0534C64.3826 62.0534 62.5002 63.2481 60.9442 65.5996C60.2566 66.6427 59.4203 67.1498 58.3917 67.1498C57.6773 67.1248 56.9762 66.949 56.3345 66.634C50.2446 63.8717 45.8913 59.6349 43.4029 54.0433C42.1995 51.3392 42.5899 49.5734 44.7054 48.134C45.9088 47.3181 48.1437 45.8 47.9893 42.8891C47.8086 39.5877 40.5211 29.6486 37.4499 28.5209C36.137 28.042 34.6978 28.0379 33.3822 28.5093C29.8535 29.6952 27.3243 31.7815 26.0568 34.5351C24.8329 37.1983 24.8912 40.3249 26.2141 43.5768C30.0458 52.9797 35.4306 61.1793 42.2228 67.9452C48.8692 74.5684 57.0397 79.9911 66.5038 84.0675C67.3576 84.4347 68.2521 84.6357 68.9078 84.7814C69.1292 84.831 69.3215 84.8747 69.4614 84.9125C69.5384 84.9333 69.6177 84.944 69.6974 84.9446H69.7732C74.2255 84.9446 79.5724 80.8769 81.2129 76.2409C82.6524 72.179 80.0241 70.1714 77.9144 68.5601ZM59.0444 40.695C58.2839 40.7124 56.6958 40.7532 56.1393 42.3675C55.877 43.1251 55.9091 43.7778 56.2325 44.3169C56.7046 45.1036 57.6108 45.3484 58.4325 45.4824C61.4192 45.9603 62.9548 47.6095 63.2607 50.6778C63.4035 52.1056 64.368 53.105 65.6005 53.105C65.6941 53.1049 65.7875 53.099 65.8803 53.0875C67.3663 52.9127 68.0861 51.82 68.0219 49.8415C68.0453 47.7785 66.9671 45.4358 65.1285 43.5709C63.2869 41.7002 61.0666 40.6454 59.0444 40.695Z" fill="url(#paint1_linear_1_2111)"/>
<path fill-rule="evenodd" clip-rule="evenodd" d="M54.2776 106.052C82.4375 106.052 105.266 83.2241 105.266 55.0642C105.266 26.9043 82.4375 4.07617 54.2776 4.07617C26.1177 4.07617 3.28955 26.9043 3.28955 55.0642C3.28955 83.2241 26.1177 106.052 54.2776 106.052ZM54.2776 109.342C84.2543 109.342 108.555 85.0409 108.555 55.0642C108.555 25.0875 84.2543 0.786621 54.2776 0.786621C24.3009 0.786621 0 25.0875 0 55.0642C0 85.0409 24.3009 109.342 54.2776 109.342Z" fill="url(#paint2_linear_1_2111)"/>
<defs>
<linearGradient id="paint0_linear_1_2111" x1="65.3123" y1="32.8105" x2="65.3123" y2="54.0175" gradientUnits="userSpaceOnUse">
<stop stop-color="#E6A963"/>
<stop offset="0.557292" stop-color="#FCF8E7"/>
<stop offset="1" stop-color="#F3DAAA"/>
</linearGradient>
<linearGradient id="paint1_linear_1_2111" x1="54.2773" y1="25.1846" x2="54.2773" y2="84.9446" gradientUnits="userSpaceOnUse">
<stop stop-color="#E6A963"/>
<stop offset="0.557292" stop-color="#FCF8E7"/>
<stop offset="1" stop-color="#F3DAAA"/>
</linearGradient>
<linearGradient id="paint2_linear_1_2111" x1="54.2776" y1="0.786621" x2="54.2776" y2="109.342" gradientUnits="userSpaceOnUse">
<stop stop-color="#E8A961"/>
<stop offset="0.46875" stop-color="#F8E7C5"/>
<stop offset="1" stop-color="#F3DBAD"/>
</linearGradient>
</defs>
</svg>
