<svg width="110" height="109" viewBox="0 0 110 109" fill="none" xmlns="http://www.w3.org/2000/svg">
<path d="M76.5687 33.1562H33.6413C30.6901 33.1562 28.3022 35.5709 28.3022 38.5222L28.2754 70.7177C28.2754 73.6689 30.6901 76.0836 33.6413 76.0836H76.5687C79.5199 76.0836 81.9346 73.6689 81.9346 70.7177V38.5222C81.9346 35.5709 79.5199 33.1562 76.5687 33.1562ZM76.5687 43.8881L55.105 57.3029L33.6413 43.8881V38.5222L55.105 51.937L76.5687 38.5222V43.8881Z" fill="url(#paint0_linear_1_2119)"/>
<path fill-rule="evenodd" clip-rule="evenodd" d="M55.1057 105.607C83.2656 105.607 106.094 82.7793 106.094 54.6194C106.094 26.4595 83.2656 3.63135 55.1057 3.63135C26.9458 3.63135 4.11768 26.4595 4.11768 54.6194C4.11768 82.7793 26.9458 105.607 55.1057 105.607ZM55.1057 108.897C85.0824 108.897 109.383 84.5961 109.383 54.6194C109.383 24.6427 85.0824 0.341797 55.1057 0.341797C25.129 0.341797 0.828125 24.6427 0.828125 54.6194C0.828125 84.5961 25.129 108.897 55.1057 108.897Z" fill="url(#paint1_linear_1_2119)"/>
<defs>
<linearGradient id="paint0_linear_1_2119" x1="36.9939" y1="33.1562" x2="73.521" y2="76.0835" gradientUnits="userSpaceOnUse">
<stop stop-color="#8B6A43"/>
<stop offset="1" stop-color="#FAF2DA"/>
</linearGradient>
<linearGradient id="paint1_linear_1_2119" x1="55.1057" y1="0.341797" x2="55.1057" y2="108.897" gradientUnits="userSpaceOnUse">
<stop stop-color="#E8A961"/>
<stop offset="0.46875" stop-color="#F8E7C5"/>
<stop offset="1" stop-color="#F3DBAD"/>
</linearGradient>
</defs>
</svg>
