<svg width="24" height="25" viewBox="0 0 24 25" fill="none" xmlns="http://www.w3.org/2000/svg">
<path fill-rule="evenodd" clip-rule="evenodd" d="M19.7767 4.77176C20.0238 4.66775 20.2943 4.63188 20.5599 4.66788C20.8256 4.70388 21.0768 4.81043 21.2873 4.97645C21.4979 5.14246 21.6601 5.36188 21.757 5.61184C21.854 5.86181 21.8822 6.1332 21.8387 6.39776L19.5707 20.1548C19.3507 21.4818 17.8947 22.2428 16.6777 21.5818C15.6597 21.0288 14.1477 20.1768 12.7877 19.2878C12.1077 18.8428 10.0247 17.4178 10.2807 16.4038C10.5007 15.5368 14.0007 12.2788 16.0007 10.3418C16.7857 9.58076 16.4277 9.14176 15.5007 9.84176C13.1977 11.5798 9.50265 14.2228 8.28065 14.9668C7.20265 15.6228 6.64065 15.7348 5.96865 15.6228C4.74265 15.4188 3.60565 15.1028 2.67765 14.7178C1.42365 14.1978 1.48465 12.4738 2.67665 11.9718L19.7767 4.77176Z" fill="black"/>
</svg>
