<svg width="213" height="21" viewBox="0 0 213 21" fill="none" xmlns="http://www.w3.org/2000/svg">
<path d="M20.9199 19.8008L20.7832 19.9375C19.2884 19.8828 18.2539 19.8555 17.6797 19.8555C17.1693 19.8555 16.3626 19.8828 15.2598 19.9375C15.0501 19.4818 14.5807 18.8392 13.8516 18.0098L9.79102 13.375C8.9069 12.3724 7.95443 11.4518 6.93359 10.6133V13.8672C6.93359 16.0365 6.99284 17.4492 7.11133 18.1055C7.1569 18.3698 7.31185 18.5384 7.57617 18.6113C7.71289 18.6478 8.24609 18.6934 9.17578 18.748L9.3125 18.8848V19.8008L9.18945 19.9375C8.27799 19.8828 6.87435 19.8555 4.97852 19.8555C3.01888 19.8555 1.61523 19.8828 0.767578 19.9375L0.630859 19.8145V18.8848L0.767578 18.748C1.69727 18.6934 2.23047 18.6478 2.36719 18.6113C2.63151 18.5384 2.78646 18.3698 2.83203 18.1055C2.95052 17.4492 3.00977 16.0365 3.00977 13.8672V6.63477C3.00977 4.46549 2.95052 3.05273 2.83203 2.39648C2.78646 2.13216 2.63151 1.96354 2.36719 1.89062C2.23047 1.85417 1.69727 1.80859 0.767578 1.75391L0.630859 1.61719V0.6875L0.767578 0.564453C1.64258 0.619141 3.04622 0.646484 4.97852 0.646484C6.95638 0.646484 8.36003 0.619141 9.18945 0.564453L9.3125 0.6875V1.63086L9.17578 1.75391C8.24609 1.80859 7.71289 1.85417 7.57617 1.89062C7.31185 1.96354 7.1569 2.13216 7.11133 2.39648C6.99284 3.05273 6.93359 4.46549 6.93359 6.63477V10.0254C8.63802 8.43945 9.85938 7.26367 10.5977 6.49805L12.5391 4.48828C13.2044 3.79557 14.0566 2.84766 15.0957 1.64453V0.701172L15.2461 0.564453C15.9479 0.619141 16.6361 0.646484 17.3105 0.646484C18.1035 0.646484 19.0332 0.619141 20.0996 0.564453L20.2363 0.701172V1.54883L20.0996 1.68555C19.0423 1.68555 18.2585 1.85417 17.748 2.19141C17.0098 2.68359 15.6107 3.90495 13.5508 5.85547L10.7891 8.48047C11.181 9.00911 11.819 9.78841 12.7031 10.8184L15.7656 14.373C18.0352 17.0072 19.3477 18.4062 19.7031 18.5703C19.9219 18.6706 20.2819 18.7253 20.7832 18.7344L20.9199 18.8848V19.8008Z" fill="white"/>
<path d="M40.8945 19.8008L40.7578 19.9375C40.694 19.9375 40.5208 19.9329 40.2383 19.9238C38.9896 19.8783 38.2103 19.8555 37.9004 19.8555C37.4355 19.8555 36.6973 19.8828 35.6855 19.9375C35.6491 19.7188 35.4759 19.3542 35.166 18.8438L31.7754 13.1836L30.2578 10.873C30.0664 10.5905 29.7975 10.3125 29.4512 10.0391L29.6016 9.57422C29.8112 9.58333 29.9661 9.58789 30.0664 9.58789C30.9596 9.58789 31.6615 9.44661 32.1719 9.16406C32.6367 8.90885 33.0651 8.46224 33.457 7.82422C33.849 7.1862 34.0449 6.42513 34.0449 5.54102C34.0449 4.00065 33.4707 2.96159 32.3223 2.42383C31.7754 2.16862 30.9779 2.04102 29.9297 2.04102C29.474 2.04102 29.0365 2.07747 28.6172 2.15039C28.526 3.04362 28.4805 4.56575 28.4805 6.7168V13.8672C28.4805 16.0365 28.5397 17.4492 28.6582 18.1055C28.7038 18.3698 28.8587 18.5384 29.123 18.6113C29.2598 18.6478 29.793 18.6934 30.7227 18.748L30.8594 18.8848V19.8008L30.7363 19.9375C29.8249 19.8828 28.4212 19.8555 26.5254 19.8555C24.5658 19.8555 23.1621 19.8828 22.3145 19.9375L22.1777 19.8145V18.8848L22.3145 18.748C23.2441 18.6934 23.7773 18.6478 23.9141 18.6113C24.1784 18.5384 24.3333 18.3698 24.3789 18.1055C24.4974 17.4492 24.5566 16.0365 24.5566 13.8672V6.63477C24.5566 4.46549 24.4974 3.05273 24.3789 2.39648C24.3333 2.13216 24.1784 1.96354 23.9141 1.89062C23.7773 1.85417 23.2441 1.80859 22.3145 1.75391L22.1777 1.61719V0.6875L22.3145 0.564453C23.2077 0.619141 24.6113 0.646484 26.5254 0.646484C27.6374 0.646484 28.5397 0.632812 29.2324 0.605469C30.6087 0.550781 31.6387 0.523438 32.3223 0.523438C33.8991 0.523438 35.0566 0.664714 35.7949 0.947266C36.7884 1.33008 37.4538 1.97721 37.791 2.88867C37.9551 3.33529 38.0371 3.86393 38.0371 4.47461C38.0371 6.95378 36.6426 8.71289 33.8535 9.75195C34.3092 10.5176 34.7923 11.2923 35.3027 12.0762L37.4082 15.3164C38.6478 17.2305 39.4727 18.3197 39.8828 18.584C40.0924 18.7207 40.3841 18.7891 40.7578 18.7891L40.8945 18.9258V19.8008Z" fill="white"/>
<path d="M62.3457 1.61719L62.209 1.75391C61.1335 1.75391 60.5273 2.04102 60.3906 2.61523C60.3177 2.93424 60.263 3.62695 60.2266 4.69336C60.1992 5.48633 60.1855 6.63021 60.1855 8.125V12.3359C60.1855 15.043 59.6523 16.9753 58.5859 18.1328C57.1732 19.6641 55.1589 20.4297 52.543 20.4297C50.1549 20.4297 48.291 20.0332 46.9512 19.2402C45.821 18.5658 45.0827 17.6087 44.7363 16.3691C44.5176 15.5762 44.4082 13.5072 44.4082 10.1621V6.63477C44.4082 4.46549 44.349 3.05273 44.2305 2.39648C44.1849 2.13216 44.0299 1.96354 43.7656 1.89062C43.6289 1.85417 43.0957 1.80859 42.166 1.75391L42.0293 1.61719V0.701172L42.166 0.564453C43.041 0.619141 44.4447 0.646484 46.377 0.646484C48.3457 0.646484 49.7448 0.619141 50.5742 0.564453L50.7109 0.701172V1.61719L50.5742 1.75391C49.6445 1.80859 49.1113 1.85417 48.9746 1.89062C48.7103 1.96354 48.5553 2.13216 48.5098 2.39648C48.3913 3.05273 48.332 4.46549 48.332 6.63477V9.45117C48.332 12.8965 48.487 15.0065 48.7969 15.7812C49.4167 17.3125 50.9434 18.0781 53.377 18.0781C54.972 18.0781 56.2161 17.6862 57.1094 16.9023C57.5286 16.5286 57.8203 16.1504 57.9844 15.7676C58.1484 15.3848 58.276 14.7923 58.3672 13.9902C58.4492 13.2428 58.4902 12.4863 58.4902 11.7207V8.87695C58.4902 6.48893 58.4811 4.85742 58.4629 3.98242C58.4447 3.16211 58.39 2.62891 58.2988 2.38281C58.2259 2.20052 58.0664 2.05924 57.8203 1.95898C57.6107 1.87695 57.0501 1.80859 56.1387 1.75391L56.002 1.61719V0.701172L56.1387 0.564453C56.9316 0.619141 57.7474 0.646484 58.5859 0.646484C59.2148 0.646484 60.4225 0.619141 62.209 0.564453L62.3457 0.701172V1.61719Z" fill="white"/>
<path d="M80.5977 15.1113C80.4062 16.7702 80.2604 18.3379 80.1602 19.8145L80.0234 19.9375C76.2773 19.8646 73.4336 19.8281 71.4922 19.8281C70.0703 19.8281 67.5501 19.8646 63.9316 19.9375L63.7949 19.8145V18.8574C64.4694 18.0098 65.4994 16.6016 66.8848 14.6328L68.8809 11.7891L71.4375 8.0293C72.2852 6.78971 73.5521 4.87109 75.2383 2.27344L71.8066 2.28711C69.1543 2.29622 67.6276 2.36003 67.2266 2.47852C66.9896 2.54232 66.8255 2.72461 66.7344 3.02539C66.6979 3.14388 66.6204 3.56771 66.502 4.29688L66.3926 4.98047L66.2422 5.11719H65.4082L65.2715 4.95312C65.3353 3.98698 65.3672 3.11654 65.3672 2.3418C65.3672 2.0957 65.3581 1.54883 65.3398 0.701172L65.4766 0.564453C66.7161 0.619141 69.4779 0.646484 73.7617 0.646484C74.7734 0.646484 76.9746 0.619141 80.3652 0.564453L80.502 0.701172V1.52148L79.3809 3.09375C78.2051 4.71615 77.1934 6.14714 76.3457 7.38672L72.2988 13.3203C71.8431 13.9857 70.7812 15.6172 69.1133 18.2148C69.5964 18.2331 70.3301 18.2422 71.3145 18.2422C75.9355 18.2422 78.3965 18.1146 78.6973 17.8594C78.8613 17.7227 79.071 17.0208 79.3262 15.7539C79.3809 15.4896 79.431 15.2708 79.4766 15.0977L79.627 14.9609H80.4473L80.5977 15.1113Z" fill="white"/>
<path d="M104.209 19.8008L104.072 19.9375C103.17 19.8828 101.766 19.8555 99.8613 19.8555C97.9108 19.8555 96.5072 19.8828 95.6504 19.9375L95.5137 19.8145V18.8848L95.6641 18.748C96.5938 18.6934 97.127 18.6478 97.2637 18.6113C97.528 18.5384 97.6829 18.3698 97.7285 18.1055C97.847 17.4492 97.9062 16.0365 97.9062 13.8672V10.5723C97.4414 10.5267 95.9648 10.5039 93.4766 10.5039C91.1797 10.5039 89.6667 10.5267 88.9375 10.5723V13.8672C88.9375 16.0365 88.9967 17.4492 89.1152 18.1055C89.1608 18.3698 89.3158 18.5384 89.5801 18.6113C89.7168 18.6478 90.25 18.6934 91.1797 18.748L91.3164 18.8848V19.8008L91.1934 19.9375C90.2819 19.8828 88.8783 19.8555 86.9824 19.8555C85.0228 19.8555 83.6191 19.8828 82.7715 19.9375L82.6348 19.8145V18.8848L82.7715 18.748C83.7012 18.6934 84.2344 18.6478 84.3711 18.6113C84.6354 18.5384 84.7904 18.3698 84.8359 18.1055C84.9544 17.4492 85.0137 16.0365 85.0137 13.8672V6.63477C85.0137 4.46549 84.9544 3.05273 84.8359 2.39648C84.7904 2.13216 84.6354 1.96354 84.3711 1.89062C84.2344 1.85417 83.7012 1.80859 82.7715 1.75391L82.6348 1.61719V0.6875L82.7715 0.564453C83.6465 0.619141 85.0501 0.646484 86.9824 0.646484C88.9603 0.646484 90.3639 0.619141 91.1934 0.564453L91.3164 0.6875V1.63086L91.1797 1.75391C90.25 1.80859 89.7168 1.85417 89.5801 1.89062C89.3158 1.96354 89.1608 2.13216 89.1152 2.39648C88.9967 3.05273 88.9375 4.46549 88.9375 6.63477V8.89062C89.9036 8.9362 91.2344 8.95898 92.9297 8.95898C95.5911 8.95898 97.25 8.9362 97.9062 8.89062V6.63477C97.9062 4.46549 97.847 3.05273 97.7285 2.39648C97.6829 2.13216 97.528 1.96354 97.2637 1.89062C97.127 1.85417 96.5938 1.80859 95.6641 1.75391L95.5137 1.61719V0.6875L95.6504 0.564453C96.5345 0.619141 97.9381 0.646484 99.8613 0.646484C101.848 0.646484 103.252 0.619141 104.072 0.564453L104.209 0.6875V1.63086L104.086 1.75391C103.138 1.80859 102.6 1.85417 102.473 1.89062C102.208 1.96354 102.053 2.13216 102.008 2.39648C101.889 3.05273 101.83 4.46549 101.83 6.63477V13.8672C101.83 16.0365 101.889 17.4492 102.008 18.1055C102.053 18.3698 102.208 18.5384 102.473 18.6113C102.609 18.6478 103.143 18.6934 104.072 18.748L104.209 18.8848V19.8008Z" fill="white"/>
<path d="M121.012 15.2891C120.811 16.6198 120.711 18.1237 120.711 19.8008L120.574 19.9375L110.635 19.8555C108.976 19.8555 107.805 19.8828 107.121 19.9375L106.984 19.8008V19.418L107.053 19.2539C107.727 18.8255 108.092 18.5566 108.146 18.4473C108.229 18.2741 108.279 17.668 108.297 16.6289L108.338 13.5664V6.63477C108.338 4.46549 108.279 3.05273 108.16 2.39648C108.115 2.13216 107.96 1.96354 107.695 1.89062C107.559 1.85417 107.025 1.80859 106.096 1.75391L105.959 1.61719V0.6875L106.096 0.564453C107.016 0.619141 108.438 0.646484 110.361 0.646484C112.075 0.646484 115.333 0.619141 120.137 0.564453L120.287 0.673828L120.109 2.19141C120.055 2.67448 120.014 3.08464 119.986 3.42188L119.891 4.69336L119.754 4.84375H118.961L118.824 4.70703C118.815 3.46745 118.742 2.76107 118.605 2.58789C118.505 2.46029 118.013 2.36003 117.129 2.28711C116.254 2.21419 115.484 2.17773 114.818 2.17773C114.025 2.17773 113.223 2.20964 112.412 2.27344C112.312 3.23047 112.262 4.55664 112.262 6.25195V9.08203C112.982 9.1276 113.565 9.15039 114.012 9.15039L115.803 9.13672C116.641 9.1276 117.115 9.05925 117.225 8.93164C117.37 8.76758 117.466 8.15234 117.512 7.08594L117.648 6.94922H118.496L118.633 7.08594C118.596 8.10677 118.578 9.04102 118.578 9.88867C118.578 10.8092 118.596 11.8164 118.633 12.9102L118.496 13.0332H117.58L117.443 12.8965C117.443 11.8483 117.37 11.2285 117.225 11.0371C117.079 10.8366 116.637 10.7044 115.898 10.6406C115.342 10.5951 114.75 10.5723 114.121 10.5723C113.456 10.5723 112.836 10.5951 112.262 10.6406V14.8105C112.262 16.0046 112.285 17.1621 112.33 18.2832H114.189C116.851 18.2832 118.482 18.1784 119.084 17.9688C119.184 17.9323 119.257 17.8822 119.303 17.8184C119.394 17.6908 119.48 17.4173 119.562 16.998L119.891 15.3027L120.027 15.1523H120.861L121.012 15.2891Z" fill="white"/>
<path d="M143.393 1.63086L143.256 1.76758C142.618 1.83138 142.208 1.90885 142.025 2C141.852 2.08203 141.665 2.28711 141.465 2.61523C141.246 2.9707 140.854 3.82747 140.289 5.18555L139.318 7.49609L137.486 11.9531C135.91 15.7812 134.848 18.4746 134.301 20.0332H132.223L125.947 4.81641C125.282 3.23047 124.817 2.31901 124.553 2.08203C124.352 1.89062 123.796 1.78581 122.885 1.76758L122.748 1.61719V0.714844L122.898 0.564453C123.855 0.619141 125.063 0.646484 126.521 0.646484C128.344 0.646484 130.003 0.619141 131.498 0.564453L131.635 0.714844V1.63086L131.512 1.76758C130.591 1.77669 129.985 1.85872 129.693 2.01367C129.538 2.10482 129.461 2.25977 129.461 2.47852C129.461 2.71549 129.757 3.58138 130.35 5.07617L130.992 6.70312L134.451 15.248L137.486 7.63281C137.605 7.34115 137.878 6.60742 138.307 5.43164C138.926 3.73633 139.236 2.7474 139.236 2.46484C139.236 2.16406 139.136 1.98177 138.936 1.91797C138.735 1.85417 138.124 1.80404 137.104 1.76758L136.967 1.63086V0.701172L137.117 0.564453C138.147 0.619141 139.218 0.646484 140.33 0.646484C141.123 0.646484 142.094 0.619141 143.242 0.564453L143.393 0.714844V1.63086Z" fill="white"/>
<path d="M162.287 19.8008L162.164 19.9375C160.141 19.8828 158.919 19.8555 158.5 19.8555C156.823 19.8555 155.264 19.8828 153.824 19.9375L153.701 19.8008V18.9395L153.838 18.7891L155.027 18.7207C155.529 18.6934 155.779 18.5156 155.779 18.1875C155.779 17.9961 155.652 17.5677 155.396 16.9023L154.289 14.0176C153.031 13.9993 151.746 13.9902 150.434 13.9902C149.723 13.9902 148.665 13.9993 147.262 14.0176L146.66 15.6855C146.204 16.9525 145.977 17.7454 145.977 18.0645C145.977 18.4108 146.191 18.6159 146.619 18.6797C146.856 18.7161 147.321 18.7526 148.014 18.7891L148.15 18.9258V19.8008L148.014 19.9375C146.327 19.8828 145.243 19.8555 144.76 19.8555C144.386 19.8555 143.461 19.8828 141.984 19.9375L141.848 19.8145V18.9258L141.998 18.7891C142.937 18.7344 143.511 18.5475 143.721 18.2285C143.939 17.9095 144.746 16.0091 146.141 12.5273L149.709 3.59961C149.973 2.9069 150.374 1.86328 150.912 0.46875H152.854L160.1 17.5176C160.382 18.1647 160.637 18.5293 160.865 18.6113C161.166 18.7207 161.599 18.7754 162.164 18.7754L162.287 18.9258V19.8008ZM153.619 12.4453L150.693 5.28125L147.891 12.4453C148.638 12.4727 149.609 12.4863 150.803 12.4863C151.96 12.4863 152.899 12.4727 153.619 12.4453Z" fill="white"/>
<path d="M166.471 15.9453C167.054 15.9453 167.555 16.1549 167.975 16.5742C168.394 16.9844 168.604 17.4993 168.604 18.1191C168.604 18.7207 168.394 19.2311 167.975 19.6504C167.555 20.0697 167.054 20.2793 166.471 20.2793C165.887 20.2793 165.382 20.0697 164.953 19.6504C164.534 19.222 164.324 18.7116 164.324 18.1191C164.324 17.5176 164.534 17.0072 164.953 16.5879C165.372 16.1595 165.878 15.9453 166.471 15.9453Z" fill="white"/>
<path d="M191.025 1.61719L190.889 1.75391C189.813 1.75391 189.207 2.04102 189.07 2.61523C188.997 2.93424 188.943 3.62695 188.906 4.69336C188.879 5.48633 188.865 6.63021 188.865 8.125V12.3359C188.865 15.043 188.332 16.9753 187.266 18.1328C185.853 19.6641 183.839 20.4297 181.223 20.4297C178.835 20.4297 176.971 20.0332 175.631 19.2402C174.501 18.5658 173.762 17.6087 173.416 16.3691C173.197 15.5762 173.088 13.5072 173.088 10.1621V6.63477C173.088 4.46549 173.029 3.05273 172.91 2.39648C172.865 2.13216 172.71 1.96354 172.445 1.89062C172.309 1.85417 171.775 1.80859 170.846 1.75391L170.709 1.61719V0.701172L170.846 0.564453C171.721 0.619141 173.124 0.646484 175.057 0.646484C177.025 0.646484 178.424 0.619141 179.254 0.564453L179.391 0.701172V1.61719L179.254 1.75391C178.324 1.80859 177.791 1.85417 177.654 1.89062C177.39 1.96354 177.235 2.13216 177.189 2.39648C177.071 3.05273 177.012 4.46549 177.012 6.63477V9.45117C177.012 12.8965 177.167 15.0065 177.477 15.7812C178.096 17.3125 179.623 18.0781 182.057 18.0781C183.652 18.0781 184.896 17.6862 185.789 16.9023C186.208 16.5286 186.5 16.1504 186.664 15.7676C186.828 15.3848 186.956 14.7923 187.047 13.9902C187.129 13.2428 187.17 12.4863 187.17 11.7207V8.87695C187.17 6.48893 187.161 4.85742 187.143 3.98242C187.124 3.16211 187.07 2.62891 186.979 2.38281C186.906 2.20052 186.746 2.05924 186.5 1.95898C186.29 1.87695 185.73 1.80859 184.818 1.75391L184.682 1.61719V0.701172L184.818 0.564453C185.611 0.619141 186.427 0.646484 187.266 0.646484C187.895 0.646484 189.102 0.619141 190.889 0.564453L191.025 0.701172V1.61719Z" fill="white"/>
<path d="M212.873 19.8008L212.75 19.9375C210.727 19.8828 209.505 19.8555 209.086 19.8555C207.409 19.8555 205.85 19.8828 204.41 19.9375L204.287 19.8008V18.9395L204.424 18.7891L205.613 18.7207C206.115 18.6934 206.365 18.5156 206.365 18.1875C206.365 17.9961 206.238 17.5677 205.982 16.9023L204.875 14.0176C203.617 13.9993 202.332 13.9902 201.02 13.9902C200.309 13.9902 199.251 13.9993 197.848 14.0176L197.246 15.6855C196.79 16.9525 196.562 17.7454 196.562 18.0645C196.562 18.4108 196.777 18.6159 197.205 18.6797C197.442 18.7161 197.907 18.7526 198.6 18.7891L198.736 18.9258V19.8008L198.6 19.9375C196.913 19.8828 195.829 19.8555 195.346 19.8555C194.972 19.8555 194.047 19.8828 192.57 19.9375L192.434 19.8145V18.9258L192.584 18.7891C193.523 18.7344 194.097 18.5475 194.307 18.2285C194.525 17.9095 195.332 16.0091 196.727 12.5273L200.295 3.59961C200.559 2.9069 200.96 1.86328 201.498 0.46875H203.439L210.686 17.5176C210.968 18.1647 211.223 18.5293 211.451 18.6113C211.752 18.7207 212.185 18.7754 212.75 18.7754L212.873 18.9258V19.8008ZM204.205 12.4453L201.279 5.28125L198.477 12.4453C199.224 12.4727 200.195 12.4863 201.389 12.4863C202.546 12.4863 203.485 12.4727 204.205 12.4453Z" fill="white"/>
</svg>
